<?xml version="1.0" standalone="no"?>
<svg xmlns:xlink="http://www.w3.org/1999/xlink" id="wave" style="transform:rotate(0deg); transition: 0.3s" viewBox="0 0 1440 490" version="1.1" xmlns="http://www.w3.org/2000/svg"><defs><linearGradient id="sw-gradient-0" x1="0" x2="0" y1="1" y2="0"><stop stop-color="rgba(110, 110, 255, 1)" offset="0%"/><stop stop-color="rgba(0, 191, 166, 1)" offset="100%"/></linearGradient></defs><path style="transform:translate(0, 0px); opacity:1" fill="url(#sw-gradient-0)" d="M0,196L34.3,204.2C68.6,212,137,229,206,220.5C274.3,212,343,180,411,155.2C480,131,549,114,617,114.3C685.7,114,754,131,823,179.7C891.4,229,960,310,1029,343C1097.1,376,1166,359,1234,343C1302.9,327,1371,310,1440,302.2C1508.6,294,1577,294,1646,277.7C1714.3,261,1783,229,1851,196C1920,163,1989,131,2057,122.5C2125.7,114,2194,131,2263,130.7C2331.4,131,2400,114,2469,130.7C2537.1,147,2606,196,2674,245C2742.9,294,2811,343,2880,326.7C2948.6,310,3017,229,3086,220.5C3154.3,212,3223,278,3291,294C3360,310,3429,278,3497,261.3C3565.7,245,3634,245,3703,220.5C3771.4,196,3840,147,3909,114.3C3977.1,82,4046,65,4114,65.3C4182.9,65,4251,82,4320,114.3C4388.6,147,4457,196,4526,245C4594.3,294,4663,343,4731,310.3C4800,278,4869,163,4903,106.2L4937.1,49L4937.1,490L4902.9,490C4868.6,490,4800,490,4731,490C4662.9,490,4594,490,4526,490C4457.1,490,4389,490,4320,490C4251.4,490,4183,490,4114,490C4045.7,490,3977,490,3909,490C3840,490,3771,490,3703,490C3634.3,490,3566,490,3497,490C3428.6,490,3360,490,3291,490C3222.9,490,3154,490,3086,490C3017.1,490,2949,490,2880,490C2811.4,490,2743,490,2674,490C2605.7,490,2537,490,2469,490C2400,490,2331,490,2263,490C2194.3,490,2126,490,2057,490C1988.6,490,1920,490,1851,490C1782.9,490,1714,490,1646,490C1577.1,490,1509,490,1440,490C1371.4,490,1303,490,1234,490C1165.7,490,1097,490,1029,490C960,490,891,490,823,490C754.3,490,686,490,617,490C548.6,490,480,490,411,490C342.9,490,274,490,206,490C137.1,490,69,490,34,490L0,490Z"/></svg>