<?xml version="1.0" standalone="no"?>
<svg xmlns:xlink="http://www.w3.org/1999/xlink" id="wave" style="transform:rotate(0deg); transition: 0.3s" viewBox="0 0 1440 490" version="1.1" xmlns="http://www.w3.org/2000/svg"><defs><linearGradient id="sw-gradient-0" x1="0" x2="0" y1="1" y2="0"><stop stop-color="rgba(243, 106, 62, 1)" offset="0%"/><stop stop-color="rgba(255, 179, 11, 1)" offset="100%"/></linearGradient></defs><path style="transform:translate(0, 0px); opacity:1" fill="url(#sw-gradient-0)" d="M0,245L34.3,204.2C68.6,163,137,82,206,49C274.3,16,343,33,411,73.5C480,114,549,180,617,171.5C685.7,163,754,82,823,106.2C891.4,131,960,261,1029,261.3C1097.1,261,1166,131,1234,73.5C1302.9,16,1371,33,1440,73.5C1508.6,114,1577,180,1646,196C1714.3,212,1783,180,1851,171.5C1920,163,1989,180,2057,228.7C2125.7,278,2194,359,2263,375.7C2331.4,392,2400,343,2469,302.2C2537.1,261,2606,229,2674,196C2742.9,163,2811,131,2880,122.5C2948.6,114,3017,131,3086,171.5C3154.3,212,3223,278,3291,285.8C3360,294,3429,245,3497,187.8C3565.7,131,3634,65,3703,32.7C3771.4,0,3840,0,3909,16.3C3977.1,33,4046,65,4114,114.3C4182.9,163,4251,229,4320,253.2C4388.6,278,4457,261,4526,253.2C4594.3,245,4663,245,4731,228.7C4800,212,4869,180,4903,163.3L4937.1,147L4937.1,490L4902.9,490C4868.6,490,4800,490,4731,490C4662.9,490,4594,490,4526,490C4457.1,490,4389,490,4320,490C4251.4,490,4183,490,4114,490C4045.7,490,3977,490,3909,490C3840,490,3771,490,3703,490C3634.3,490,3566,490,3497,490C3428.6,490,3360,490,3291,490C3222.9,490,3154,490,3086,490C3017.1,490,2949,490,2880,490C2811.4,490,2743,490,2674,490C2605.7,490,2537,490,2469,490C2400,490,2331,490,2263,490C2194.3,490,2126,490,2057,490C1988.6,490,1920,490,1851,490C1782.9,490,1714,490,1646,490C1577.1,490,1509,490,1440,490C1371.4,490,1303,490,1234,490C1165.7,490,1097,490,1029,490C960,490,891,490,823,490C754.3,490,686,490,617,490C548.6,490,480,490,411,490C342.9,490,274,490,206,490C137.1,490,69,490,34,490L0,490Z"/></svg>